<mxfile host="app.diagrams.net" agent="Mozilla/5.0 (Windows NT 10.0; Win64; x64) AppleWebKit/537.36 (KHTML, like Gecko) Chrome/131.0.0.0 Safari/537.36" version="24.8.8">
  <diagram name="Страница-1" id="YlutRE6LXumoINYvb4zL">
    <mxGraphModel dx="945" dy="1075" grid="1" gridSize="10" guides="1" tooltips="1" connect="1" arrows="1" fold="1" page="1" pageScale="1" pageWidth="827" pageHeight="1169" math="0" shadow="0">
      <root>
        <mxCell id="0" />
        <mxCell id="1" parent="0" />
        <mxCell id="I_bwh80lSVLbK8mVs7HR-1" value="orderItems" style="swimlane;childLayout=stackLayout;horizontal=1;startSize=50;horizontalStack=0;rounded=1;fontSize=14;fontStyle=0;strokeWidth=2;resizeParent=0;resizeLast=1;shadow=0;dashed=0;align=center;arcSize=4;whiteSpace=wrap;html=1;" vertex="1" parent="1">
          <mxGeometry x="590" y="260" width="130" height="140" as="geometry" />
        </mxCell>
        <mxCell id="I_bwh80lSVLbK8mVs7HR-2" value="*orderItems_id&lt;div&gt;order_id (FK)&lt;/div&gt;&lt;div&gt;item_id (FK)&lt;/div&gt;&lt;div&gt;quantity&lt;/div&gt;&lt;div&gt;sub_total&lt;/div&gt;" style="align=left;strokeColor=none;fillColor=none;spacingLeft=4;fontSize=12;verticalAlign=top;resizable=0;rotatable=0;part=1;html=1;" vertex="1" parent="I_bwh80lSVLbK8mVs7HR-1">
          <mxGeometry y="50" width="130" height="90" as="geometry" />
        </mxCell>
        <mxCell id="I_bwh80lSVLbK8mVs7HR-3" value="payments" style="swimlane;childLayout=stackLayout;horizontal=1;startSize=50;horizontalStack=0;rounded=1;fontSize=14;fontStyle=0;strokeWidth=2;resizeParent=0;resizeLast=1;shadow=0;dashed=0;align=center;arcSize=4;whiteSpace=wrap;html=1;" vertex="1" parent="1">
          <mxGeometry x="300" y="120" width="140" height="140" as="geometry" />
        </mxCell>
        <mxCell id="I_bwh80lSVLbK8mVs7HR-4" value="*payment_id&amp;nbsp;&lt;div&gt;order_id (FK)&lt;/div&gt;&lt;div&gt;payment_date&lt;/div&gt;&lt;div&gt;payment_amount&lt;/div&gt;&lt;div&gt;payment_type&lt;/div&gt;" style="align=left;strokeColor=none;fillColor=none;spacingLeft=4;fontSize=12;verticalAlign=top;resizable=0;rotatable=0;part=1;html=1;" vertex="1" parent="I_bwh80lSVLbK8mVs7HR-3">
          <mxGeometry y="50" width="140" height="90" as="geometry" />
        </mxCell>
        <mxCell id="I_bwh80lSVLbK8mVs7HR-5" value="inventory" style="swimlane;childLayout=stackLayout;horizontal=1;startSize=50;horizontalStack=0;rounded=1;fontSize=14;fontStyle=0;strokeWidth=2;resizeParent=0;resizeLast=1;shadow=0;dashed=0;align=center;arcSize=4;whiteSpace=wrap;html=1;" vertex="1" parent="1">
          <mxGeometry x="660" y="600" width="110" height="110" as="geometry" />
        </mxCell>
        <mxCell id="I_bwh80lSVLbK8mVs7HR-6" value="item_id (PK,FK)&lt;div&gt;quantity_in_stock&lt;/div&gt;&lt;div&gt;reorder_level&lt;/div&gt;" style="align=left;strokeColor=none;fillColor=none;spacingLeft=4;fontSize=12;verticalAlign=top;resizable=0;rotatable=0;part=1;html=1;" vertex="1" parent="I_bwh80lSVLbK8mVs7HR-5">
          <mxGeometry y="50" width="110" height="60" as="geometry" />
        </mxCell>
        <mxCell id="I_bwh80lSVLbK8mVs7HR-7" value="items" style="swimlane;childLayout=stackLayout;horizontal=1;startSize=50;horizontalStack=0;rounded=1;fontSize=14;fontStyle=0;strokeWidth=2;resizeParent=0;resizeLast=1;shadow=0;dashed=0;align=center;arcSize=4;whiteSpace=wrap;html=1;" vertex="1" parent="1">
          <mxGeometry x="490" y="480" width="110" height="140" as="geometry" />
        </mxCell>
        <mxCell id="I_bwh80lSVLbK8mVs7HR-8" value="*item_id&amp;nbsp;&lt;div&gt;category_id (FK)&lt;/div&gt;&lt;div&gt;name&lt;/div&gt;&lt;div&gt;price&lt;/div&gt;&lt;div&gt;stock&lt;/div&gt;" style="align=left;strokeColor=none;fillColor=none;spacingLeft=4;fontSize=12;verticalAlign=top;resizable=0;rotatable=0;part=1;html=1;" vertex="1" parent="I_bwh80lSVLbK8mVs7HR-7">
          <mxGeometry y="50" width="110" height="90" as="geometry" />
        </mxCell>
        <mxCell id="I_bwh80lSVLbK8mVs7HR-9" value="category" style="swimlane;childLayout=stackLayout;horizontal=1;startSize=50;horizontalStack=0;rounded=1;fontSize=14;fontStyle=0;strokeWidth=2;resizeParent=0;resizeLast=1;shadow=0;dashed=0;align=center;arcSize=4;whiteSpace=wrap;html=1;" vertex="1" parent="1">
          <mxGeometry x="314" y="600" width="100" height="110" as="geometry" />
        </mxCell>
        <mxCell id="I_bwh80lSVLbK8mVs7HR-10" value="*category_id&amp;nbsp;&lt;div&gt;name&lt;/div&gt;&lt;div&gt;description&lt;/div&gt;" style="align=left;strokeColor=none;fillColor=none;spacingLeft=4;fontSize=12;verticalAlign=top;resizable=0;rotatable=0;part=1;html=1;" vertex="1" parent="I_bwh80lSVLbK8mVs7HR-9">
          <mxGeometry y="50" width="100" height="60" as="geometry" />
        </mxCell>
        <mxCell id="I_bwh80lSVLbK8mVs7HR-24" style="edgeStyle=orthogonalEdgeStyle;rounded=0;orthogonalLoop=1;jettySize=auto;html=1;exitX=0.5;exitY=0;exitDx=0;exitDy=0;entryX=0.5;entryY=1;entryDx=0;entryDy=0;startArrow=ERmandOne;startFill=0;endArrow=ERmandOne;endFill=0;" edge="1" parent="1" source="I_bwh80lSVLbK8mVs7HR-11" target="I_bwh80lSVLbK8mVs7HR-4">
          <mxGeometry relative="1" as="geometry" />
        </mxCell>
        <mxCell id="I_bwh80lSVLbK8mVs7HR-11" value="orders" style="swimlane;childLayout=stackLayout;horizontal=1;startSize=50;horizontalStack=0;rounded=1;fontSize=14;fontStyle=0;strokeWidth=2;resizeParent=0;resizeLast=1;shadow=0;dashed=0;align=center;arcSize=4;whiteSpace=wrap;html=1;" vertex="1" parent="1">
          <mxGeometry x="310" y="360" width="120" height="140" as="geometry" />
        </mxCell>
        <mxCell id="I_bwh80lSVLbK8mVs7HR-12" value="*order_id&lt;div&gt;customer_id (FK)&lt;/div&gt;&lt;div&gt;user_id (FK)&lt;/div&gt;&lt;div&gt;order_date&lt;/div&gt;&lt;div&gt;total_amount&lt;/div&gt;" style="align=left;strokeColor=none;fillColor=none;spacingLeft=4;fontSize=12;verticalAlign=top;resizable=0;rotatable=0;part=1;html=1;" vertex="1" parent="I_bwh80lSVLbK8mVs7HR-11">
          <mxGeometry y="50" width="120" height="90" as="geometry" />
        </mxCell>
        <mxCell id="I_bwh80lSVLbK8mVs7HR-13" value="customers" style="swimlane;childLayout=stackLayout;horizontal=1;startSize=50;horizontalStack=0;rounded=1;fontSize=14;fontStyle=0;strokeWidth=2;resizeParent=0;resizeLast=1;shadow=0;dashed=0;align=center;arcSize=4;whiteSpace=wrap;html=1;" vertex="1" parent="1">
          <mxGeometry x="65" y="470" width="120" height="140" as="geometry" />
        </mxCell>
        <mxCell id="I_bwh80lSVLbK8mVs7HR-14" value="*customer_id&lt;div&gt;loyalttyCard&lt;/div&gt;&lt;div&gt;name&lt;/div&gt;&lt;div&gt;phone&lt;/div&gt;&lt;div&gt;email&lt;/div&gt;" style="align=left;strokeColor=none;fillColor=none;spacingLeft=4;fontSize=12;verticalAlign=top;resizable=0;rotatable=0;part=1;html=1;" vertex="1" parent="I_bwh80lSVLbK8mVs7HR-13">
          <mxGeometry y="50" width="120" height="90" as="geometry" />
        </mxCell>
        <mxCell id="I_bwh80lSVLbK8mVs7HR-15" value="users" style="swimlane;childLayout=stackLayout;horizontal=1;startSize=50;horizontalStack=0;rounded=1;fontSize=14;fontStyle=0;strokeWidth=2;resizeParent=0;resizeLast=1;shadow=0;dashed=0;align=center;arcSize=4;whiteSpace=wrap;html=1;" vertex="1" parent="1">
          <mxGeometry x="60" y="280" width="120" height="140" as="geometry" />
        </mxCell>
        <mxCell id="I_bwh80lSVLbK8mVs7HR-16" value="*user_id&lt;br&gt;role&lt;div&gt;&lt;span style=&quot;background-color: initial;&quot;&gt;name&lt;/span&gt;&lt;div&gt;email&lt;/div&gt;&lt;div&gt;password&lt;/div&gt;&lt;/div&gt;" style="align=left;strokeColor=none;fillColor=none;spacingLeft=4;fontSize=12;verticalAlign=top;resizable=0;rotatable=0;part=1;html=1;" vertex="1" parent="I_bwh80lSVLbK8mVs7HR-15">
          <mxGeometry y="50" width="120" height="90" as="geometry" />
        </mxCell>
        <mxCell id="I_bwh80lSVLbK8mVs7HR-22" style="edgeStyle=orthogonalEdgeStyle;rounded=0;orthogonalLoop=1;jettySize=auto;html=1;entryX=0.006;entryY=0.137;entryDx=0;entryDy=0;entryPerimeter=0;startArrow=ERone;startFill=0;endArrow=ERoneToMany;endFill=0;" edge="1" parent="1" source="I_bwh80lSVLbK8mVs7HR-16" target="I_bwh80lSVLbK8mVs7HR-12">
          <mxGeometry relative="1" as="geometry" />
        </mxCell>
        <mxCell id="I_bwh80lSVLbK8mVs7HR-23" style="edgeStyle=orthogonalEdgeStyle;rounded=0;orthogonalLoop=1;jettySize=auto;html=1;exitX=1;exitY=0.5;exitDx=0;exitDy=0;entryX=0;entryY=0.5;entryDx=0;entryDy=0;startArrow=ERone;startFill=0;endArrow=ERoneToMany;endFill=0;" edge="1" parent="1" source="I_bwh80lSVLbK8mVs7HR-14" target="I_bwh80lSVLbK8mVs7HR-12">
          <mxGeometry relative="1" as="geometry" />
        </mxCell>
        <mxCell id="I_bwh80lSVLbK8mVs7HR-25" style="edgeStyle=orthogonalEdgeStyle;rounded=0;orthogonalLoop=1;jettySize=auto;html=1;exitX=1;exitY=0.25;exitDx=0;exitDy=0;entryX=0;entryY=0.25;entryDx=0;entryDy=0;startArrow=ERmandOne;startFill=0;endArrow=ERoneToMany;endFill=0;" edge="1" parent="1" source="I_bwh80lSVLbK8mVs7HR-12" target="I_bwh80lSVLbK8mVs7HR-2">
          <mxGeometry relative="1" as="geometry" />
        </mxCell>
        <mxCell id="I_bwh80lSVLbK8mVs7HR-26" style="edgeStyle=orthogonalEdgeStyle;rounded=0;orthogonalLoop=1;jettySize=auto;html=1;exitX=1;exitY=0.5;exitDx=0;exitDy=0;entryX=0;entryY=0.5;entryDx=0;entryDy=0;dashed=1;dashPattern=8 8;startArrow=ERoneToMany;startFill=0;endArrow=ERmany;endFill=0;" edge="1" parent="1" source="I_bwh80lSVLbK8mVs7HR-12" target="I_bwh80lSVLbK8mVs7HR-8">
          <mxGeometry relative="1" as="geometry" />
        </mxCell>
        <mxCell id="I_bwh80lSVLbK8mVs7HR-27" style="edgeStyle=orthogonalEdgeStyle;rounded=0;orthogonalLoop=1;jettySize=auto;html=1;exitX=1;exitY=0.25;exitDx=0;exitDy=0;entryX=0.5;entryY=1;entryDx=0;entryDy=0;startArrow=ERone;startFill=0;endArrow=ERoneToMany;endFill=0;" edge="1" parent="1" source="I_bwh80lSVLbK8mVs7HR-10" target="I_bwh80lSVLbK8mVs7HR-8">
          <mxGeometry relative="1" as="geometry" />
        </mxCell>
        <mxCell id="I_bwh80lSVLbK8mVs7HR-29" style="edgeStyle=orthogonalEdgeStyle;rounded=0;orthogonalLoop=1;jettySize=auto;html=1;exitX=1;exitY=0.25;exitDx=0;exitDy=0;entryX=0.5;entryY=1;entryDx=0;entryDy=0;startArrow=ERmandOne;startFill=0;endArrow=ERoneToMany;endFill=0;" edge="1" parent="1" source="I_bwh80lSVLbK8mVs7HR-8" target="I_bwh80lSVLbK8mVs7HR-2">
          <mxGeometry relative="1" as="geometry" />
        </mxCell>
        <mxCell id="I_bwh80lSVLbK8mVs7HR-30" style="edgeStyle=orthogonalEdgeStyle;rounded=0;orthogonalLoop=1;jettySize=auto;html=1;exitX=1;exitY=0.5;exitDx=0;exitDy=0;entryX=0;entryY=0.25;entryDx=0;entryDy=0;startArrow=ERmandOne;startFill=0;endArrow=ERmandOne;endFill=0;" edge="1" parent="1" source="I_bwh80lSVLbK8mVs7HR-8" target="I_bwh80lSVLbK8mVs7HR-6">
          <mxGeometry relative="1" as="geometry" />
        </mxCell>
        <mxCell id="I_bwh80lSVLbK8mVs7HR-31" value="1:N" style="text;html=1;align=center;verticalAlign=middle;resizable=0;points=[];autosize=1;strokeColor=none;fillColor=none;" vertex="1" parent="1">
          <mxGeometry x="199" y="351" width="40" height="30" as="geometry" />
        </mxCell>
        <mxCell id="I_bwh80lSVLbK8mVs7HR-32" value="1:1" style="text;html=1;align=center;verticalAlign=middle;resizable=0;points=[];autosize=1;strokeColor=none;fillColor=none;" vertex="1" parent="1">
          <mxGeometry x="362" y="290" width="40" height="30" as="geometry" />
        </mxCell>
        <mxCell id="I_bwh80lSVLbK8mVs7HR-33" value="1:N" style="text;html=1;align=center;verticalAlign=middle;resizable=0;points=[];autosize=1;strokeColor=none;fillColor=none;" vertex="1" parent="1">
          <mxGeometry x="650" y="460" width="40" height="30" as="geometry" />
        </mxCell>
        <mxCell id="I_bwh80lSVLbK8mVs7HR-34" value="1:N" style="text;html=1;align=center;verticalAlign=middle;resizable=0;points=[];autosize=1;strokeColor=none;fillColor=none;" vertex="1" parent="1">
          <mxGeometry x="476" y="368" width="40" height="30" as="geometry" />
        </mxCell>
        <mxCell id="I_bwh80lSVLbK8mVs7HR-35" value="1:N" style="text;html=1;align=center;verticalAlign=middle;resizable=0;points=[];autosize=1;strokeColor=none;fillColor=none;" vertex="1" parent="1">
          <mxGeometry x="450" y="642" width="40" height="30" as="geometry" />
        </mxCell>
        <mxCell id="I_bwh80lSVLbK8mVs7HR-36" value="1:N" style="text;html=1;align=center;verticalAlign=middle;resizable=0;points=[];autosize=1;strokeColor=none;fillColor=none;" vertex="1" parent="1">
          <mxGeometry x="213" y="500" width="40" height="30" as="geometry" />
        </mxCell>
        <mxCell id="I_bwh80lSVLbK8mVs7HR-37" value="1:1" style="text;html=1;align=center;verticalAlign=middle;resizable=0;points=[];autosize=1;strokeColor=none;fillColor=none;" vertex="1" parent="1">
          <mxGeometry x="597" y="615" width="40" height="30" as="geometry" />
        </mxCell>
        <mxCell id="I_bwh80lSVLbK8mVs7HR-38" value="M:N" style="text;html=1;align=center;verticalAlign=middle;resizable=0;points=[];autosize=1;strokeColor=none;fillColor=none;" vertex="1" parent="1">
          <mxGeometry x="419" y="510" width="50" height="30" as="geometry" />
        </mxCell>
      </root>
    </mxGraphModel>
  </diagram>
</mxfile>
